<svg width="155" height="47" viewBox="0 0 155 47" fill="none" xmlns="http://www.w3.org/2000/svg">
<g id="logo" clip-path="url(#clip0_117_927)">
<g id="Group">
<g id="Group_2">
<path id="Vector" d="M71.4059 38.6513C71.4059 38.8703 71.4385 39.0731 71.5009 39.2596C71.5634 39.4462 71.6475 39.6192 71.7561 39.776C71.8592 39.9328 71.9841 40.0734 72.128 40.2005C72.2719 40.3276 72.4184 40.4357 72.5732 40.5331C72.6003 40.552 72.6329 40.5736 72.6763 40.606C72.717 40.6358 72.7523 40.6736 72.7795 40.7169C72.812 40.7602 72.8256 40.8115 72.831 40.8656C72.8365 40.9224 72.8175 40.9846 72.7768 41.0549C72.7279 41.1333 72.6736 41.1819 72.6139 41.209C72.5596 41.2333 72.4999 41.2441 72.4429 41.2414C72.3859 41.2414 72.3316 41.2279 72.2827 41.2036C72.2366 41.1792 72.1986 41.163 72.1687 41.1495C71.9488 41.0224 71.7398 40.8602 71.5416 40.6682C71.3408 40.4736 71.1589 40.2329 70.9933 39.9464C70.844 40.2194 70.6594 40.4682 70.445 40.6926C70.2278 40.917 69.9862 41.1089 69.7202 41.2684C69.693 41.2874 69.6578 41.3063 69.6035 41.3306C69.5546 41.355 69.5003 41.3658 69.4379 41.3685C69.3809 41.3685 69.3184 41.3604 69.2587 41.3333C69.2017 41.309 69.1474 41.2603 69.1013 41.1873C69.0606 41.1252 69.0416 41.0657 69.047 41.0089C69.0497 40.9548 69.066 40.9062 69.0904 40.8629C69.1176 40.8196 69.1474 40.7818 69.1827 40.752C69.2207 40.7223 69.2506 40.7007 69.2723 40.6872C69.6632 40.4492 69.9699 40.1627 70.1952 39.8274C70.4233 39.4921 70.5373 39.1082 70.5373 38.681V38.4621C70.5373 38.3296 70.578 38.2268 70.6621 38.1511C70.7436 38.0754 70.844 38.0376 70.9635 38.0376C71.0829 38.0376 71.1779 38.0754 71.2648 38.1511C71.3516 38.2268 71.3978 38.3296 71.3978 38.4621V38.654L71.4059 38.6513ZM69.9754 42.1769C69.9754 42.0444 70.0188 41.9417 70.1029 41.8687C70.1871 41.7957 70.2848 41.7578 70.4015 41.7578C70.5183 41.7578 70.6214 41.793 70.7029 41.8687C70.787 41.9417 70.8277 42.0444 70.8277 42.1769V43.0123C70.8277 43.1096 70.844 43.1772 70.882 43.2178C70.92 43.2583 70.9825 43.2773 71.0747 43.2773H73.9793C74.0852 43.2773 74.1693 43.3097 74.2345 43.3773C74.2996 43.4449 74.3295 43.526 74.3295 43.626C74.3295 43.718 74.2969 43.7964 74.2345 43.8667C74.172 43.937 74.0879 43.9694 73.9793 43.9694H70.5997C70.3798 43.9694 70.2197 43.9153 70.1219 43.8126C70.0242 43.7071 69.9754 43.5584 69.9754 43.3665V42.1769ZM74.229 41.9984C74.229 42.1309 74.1856 42.2337 74.1015 42.3066C74.0173 42.3796 73.9169 42.4175 73.8029 42.4175C73.6834 42.4175 73.583 42.3824 73.5015 42.3066C73.4228 42.2337 73.3821 42.1309 73.3821 41.9984V38.1187C73.3821 37.9862 73.4228 37.8835 73.5015 37.8078C73.583 37.7321 73.6834 37.6942 73.8029 37.6942C73.9223 37.6942 74.0173 37.7321 74.1015 37.8078C74.1856 37.8835 74.229 37.9862 74.229 38.1187V39.5138H74.8534C74.9565 39.5138 75.0407 39.5489 75.1085 39.6192C75.171 39.6895 75.2036 39.7706 75.2036 39.8625C75.2036 39.9626 75.171 40.0464 75.1085 40.1086C75.0407 40.1708 74.9592 40.2032 74.8534 40.2032H74.229V41.9957V41.9984Z" fill="white"/>
<path id="Vector_2" d="M76.7101 39.4516C76.7101 39.2461 76.7481 39.0541 76.8269 38.873C76.9056 38.6919 77.0142 38.535 77.1608 38.4026C77.3073 38.2701 77.4811 38.1619 77.6901 38.0835C77.8991 38.0051 78.1298 37.9673 78.3877 37.9673C78.6456 37.9673 78.8818 38.0051 79.0908 38.0835C79.2998 38.1619 79.4763 38.2674 79.6201 38.3972C79.7613 38.5296 79.8753 38.6865 79.954 38.8703C80.0327 39.0514 80.0707 39.2461 80.0707 39.4516C80.0707 39.6571 80.0327 39.8517 79.954 40.0329C79.8753 40.214 79.764 40.3708 79.6201 40.5033C79.4763 40.6358 79.2998 40.7412 79.0908 40.8196C78.8818 40.8953 78.6483 40.9359 78.3877 40.9359C78.1271 40.9359 77.8991 40.898 77.6901 40.8196C77.4811 40.7412 77.3046 40.6358 77.1608 40.5006C77.0169 40.3654 76.9056 40.2086 76.8269 40.0275C76.7481 39.8463 76.7101 39.6544 76.7101 39.4489V39.4516ZM79.232 39.4516C79.232 39.3516 79.2157 39.2542 79.1858 39.1623C79.1559 39.0677 79.1071 38.9839 79.0419 38.9109C78.9741 38.8379 78.8872 38.7784 78.7813 38.7351C78.6755 38.6919 78.5397 38.6702 78.3877 38.6702C78.2357 38.6702 78.1136 38.6919 78.0077 38.7351C77.9018 38.7784 77.8177 38.8379 77.7471 38.9109C77.6765 38.9839 77.6277 39.0677 77.5978 39.1623C77.5652 39.2542 77.5489 39.3489 77.5489 39.4462C77.5489 39.5489 77.5652 39.649 77.5978 39.7436C77.6304 39.8382 77.6792 39.922 77.7471 39.9923C77.8177 40.0653 77.9045 40.1248 78.0077 40.1681C78.1108 40.2113 78.2384 40.2329 78.3877 40.2329C78.537 40.2329 78.6755 40.2113 78.7813 40.1681C78.8872 40.1248 78.9741 40.068 79.0419 39.9923C79.1098 39.9193 79.1587 39.8355 79.1858 39.7436C79.2129 39.6517 79.232 39.5543 79.232 39.4516ZM81.9899 43.4341C81.9899 43.626 81.9411 43.7747 81.8433 43.8802C81.7456 43.9856 81.5855 44.037 81.3683 44.037H78.2954C78.0756 44.037 77.9154 43.9856 77.8177 43.8802C77.72 43.7747 77.6711 43.626 77.6711 43.4341V41.7713C77.6711 41.6388 77.7118 41.5361 77.796 41.4604C77.8774 41.3847 77.9778 41.3469 78.0973 41.3469C78.2167 41.3469 78.3117 41.3847 78.3959 41.4604C78.48 41.5361 78.5235 41.6388 78.5235 41.7713V42.039H81.1484V41.7713C81.1484 41.6388 81.1864 41.5361 81.2679 41.4604C81.3493 41.3847 81.447 41.3469 81.5665 41.3469C81.6859 41.3469 81.7809 41.3847 81.8678 41.4604C81.9519 41.5361 81.9926 41.6388 81.9926 41.7713V43.4341H81.9899ZM80.8987 43.3611C80.991 43.3611 81.0561 43.3421 81.0914 43.3016C81.1267 43.261 81.1457 43.1907 81.1457 43.0961V42.7203H78.5207V43.0961C78.5207 43.1934 78.537 43.261 78.575 43.3016C78.613 43.3421 78.6755 43.3611 78.7678 43.3611H80.896H80.8987ZM81.9899 40.6574C81.9899 40.7899 81.9492 40.8926 81.865 40.9656C81.7782 41.0386 81.6805 41.0765 81.5637 41.0765C81.447 41.0765 81.3466 41.0413 81.2651 40.9656C81.1837 40.8926 81.1457 40.7899 81.1457 40.6574V39.7463H80.5865C80.4833 39.7463 80.3992 39.7138 80.3341 39.649C80.2662 39.5814 80.2363 39.5003 80.2363 39.3975C80.2363 39.3056 80.2689 39.2272 80.3341 39.1542C80.3965 39.0839 80.4806 39.0487 80.5865 39.0487H81.1457V38.1187C81.1457 37.9862 81.1837 37.8835 81.2651 37.8078C81.3466 37.7321 81.4443 37.6942 81.5637 37.6942C81.6832 37.6942 81.7782 37.7321 81.865 37.8078C81.9492 37.8835 81.9899 37.9862 81.9899 38.1187V40.6574Z" fill="white"/>
<path id="Vector_3" d="M84.281 41.3414C84.1643 41.3414 84.0774 41.3117 84.015 41.2495C83.9552 41.1873 83.9227 41.1062 83.9227 41.0007C83.9227 40.9034 83.9552 40.8223 84.015 40.7547C84.0774 40.6871 84.1643 40.652 84.281 40.652H85.2718V39.9625C84.832 39.7517 84.6122 39.4353 84.6122 39.0109C84.6122 38.6134 84.8049 38.3079 85.2012 38.0943C85.5921 37.8807 86.1594 37.7726 86.9059 37.7726C87.6524 37.7726 88.2306 37.878 88.6161 38.0943C89.0016 38.3106 89.1943 38.6161 89.1943 39.0109C89.1943 39.4299 88.9744 39.749 88.5401 39.9625V40.652H89.501C89.6069 40.652 89.6911 40.6871 89.7589 40.7547C89.8268 40.825 89.8594 40.9034 89.8594 41.0007C89.8594 41.1062 89.8241 41.1873 89.7589 41.2495C89.6938 41.3117 89.6096 41.3414 89.501 41.3414H84.281ZM84.6149 42.8879C84.6149 42.4851 84.8076 42.1822 85.1985 41.9768C85.5867 41.7713 86.154 41.6686 86.9005 41.6686C87.647 41.6686 88.2143 41.7713 88.6052 41.9768C88.9934 42.1822 89.1889 42.4851 89.1889 42.8879C89.1889 43.2907 88.9907 43.5936 88.6052 43.799C88.2143 44.0045 87.647 44.1072 86.9005 44.1072C86.154 44.1072 85.5867 44.0045 85.1985 43.799C84.8076 43.5936 84.6149 43.2907 84.6149 42.8879ZM86.9032 38.4404C86.4309 38.4404 86.0753 38.4863 85.8283 38.581C85.5812 38.6756 85.4618 38.8162 85.4618 39.0082C85.4618 39.2001 85.584 39.3434 85.8283 39.4353C86.0753 39.53 86.4309 39.5759 86.9032 39.5759C87.3756 39.5759 87.7339 39.5273 87.9755 39.4353C88.2198 39.3434 88.3392 39.2001 88.3392 39.0082C88.3392 38.8162 88.2171 38.6729 87.9755 38.581C87.7339 38.4863 87.3756 38.4404 86.9032 38.4404ZM88.3474 42.8879C88.3474 42.6878 88.2198 42.5472 87.9646 42.4688C87.7094 42.3931 87.3566 42.3526 86.9032 42.3526C86.4499 42.3526 86.0943 42.3904 85.8446 42.4688C85.5894 42.5472 85.4618 42.6878 85.4618 42.8879C85.4618 43.088 85.5894 43.2259 85.8446 43.3043C86.097 43.3827 86.4526 43.4205 86.9032 43.4205C87.3538 43.4205 87.7122 43.3827 87.9646 43.3043C88.2198 43.2259 88.3474 43.088 88.3474 42.8879ZM86.9032 40.2464C86.7594 40.2464 86.6182 40.241 86.4933 40.2356C86.3658 40.2275 86.2409 40.2167 86.1214 40.1978V40.6493H87.6877V40.1978C87.5683 40.214 87.4434 40.2275 87.3158 40.2356C87.1855 40.241 87.0498 40.2464 86.9005 40.2464H86.9032Z" fill="white"/>
<path id="Vector_4" d="M95.017 42.9826C95.017 42.7906 95.0658 42.6446 95.1636 42.5392C95.2613 42.4337 95.4214 42.3823 95.6413 42.3823H98.3884C98.4563 42.3823 98.4997 42.3715 98.5214 42.3553C98.5405 42.3364 98.554 42.3039 98.554 42.258V42.2093C98.554 42.1552 98.5432 42.1201 98.5133 42.1066C98.4862 42.0931 98.4427 42.0876 98.3884 42.0876H95.3672C95.264 42.0876 95.1799 42.0579 95.1147 41.9984C95.0468 41.9389 95.017 41.8578 95.017 41.7578C95.017 41.6659 95.0496 41.5875 95.1147 41.5172C95.1771 41.4469 95.2613 41.4144 95.3672 41.4144H96.776V41.0116H94.5854C94.4686 41.0116 94.3818 40.9819 94.3193 40.9197C94.2596 40.8602 94.2271 40.7764 94.2271 40.6709C94.2271 40.5763 94.2596 40.4925 94.3193 40.4249C94.3818 40.3573 94.4686 40.3222 94.5854 40.3222H99.8054C99.9113 40.3222 99.9954 40.3573 100.063 40.4249C100.131 40.4952 100.164 40.5763 100.164 40.6709C100.164 40.7764 100.128 40.8602 100.063 40.9197C99.9954 40.9819 99.914 41.0116 99.8054 41.0116H97.6284V41.4144H98.7739C98.9938 41.4144 99.1539 41.4685 99.2517 41.574C99.3494 41.6767 99.3982 41.8254 99.3982 42.0173V42.4472C99.3982 42.6392 99.3494 42.7879 99.2517 42.8933C99.1539 42.9961 98.9938 43.0501 98.7739 43.0501H96.0349C95.9671 43.0501 95.9236 43.0583 95.9019 43.0772C95.8829 43.0934 95.8693 43.1258 95.8693 43.1718V43.2421C95.8693 43.2962 95.8802 43.3313 95.9101 43.3448C95.9372 43.3584 95.9806 43.3638 96.0349 43.3638H99.1865C99.2897 43.3638 99.3738 43.3935 99.4417 43.453C99.5041 43.5125 99.5367 43.5909 99.5367 43.6936C99.5367 43.7855 99.5041 43.8639 99.4417 43.9342C99.3738 44.0018 99.2924 44.037 99.1865 44.037H95.6386C95.4187 44.037 95.2586 43.9856 95.1609 43.8802C95.0631 43.7747 95.0143 43.626 95.0143 43.4341V42.9826H95.017ZM99.3657 39.3299C99.3657 39.5219 99.3168 39.6706 99.2191 39.7733C99.1214 39.8788 98.9612 39.9328 98.7413 39.9328H95.6793C95.4595 39.9328 95.2993 39.8788 95.2016 39.7733C95.1038 39.6706 95.055 39.5219 95.055 39.3299V38.4053C95.055 38.2133 95.1038 38.0646 95.2016 37.9619C95.2993 37.8564 95.4595 37.8051 95.6793 37.8051H98.7413C98.9612 37.8051 99.1214 37.8564 99.2191 37.9619C99.3168 38.0646 99.3657 38.2133 99.3657 38.4053V39.3299ZM95.9019 38.9811C95.9019 39.0758 95.9209 39.1461 95.9562 39.1866C95.9942 39.2272 96.0567 39.2488 96.1489 39.2488H98.2663C98.3559 39.2488 98.4237 39.2299 98.4563 39.1866C98.4943 39.1461 98.5106 39.0758 98.5106 38.9811V38.7622C98.5106 38.6675 98.4943 38.5972 98.4563 38.5567C98.421 38.5161 98.3559 38.4945 98.2663 38.4945H96.1489C96.0567 38.4945 95.9915 38.5134 95.9562 38.5567C95.9209 38.5972 95.9019 38.6675 95.9019 38.7622V38.9811Z" fill="white"/>
<path id="Vector_5" d="M105.047 41.9092H106.193C106.413 41.9092 106.573 41.9633 106.67 42.0661C106.768 42.1715 106.817 42.3202 106.817 42.5122V43.4341C106.817 43.6261 106.768 43.7748 106.67 43.8802C106.573 43.9856 106.413 44.037 106.193 44.037H103.06C102.84 44.037 102.68 43.9856 102.582 43.8802C102.485 43.7748 102.436 43.6261 102.436 43.4341V42.5122C102.436 42.3202 102.485 42.1715 102.582 42.0661C102.68 41.9633 102.84 41.9092 103.06 41.9092H104.195V41.4658H102.004C101.887 41.4658 101.801 41.4334 101.738 41.3739C101.678 41.3117 101.646 41.2279 101.646 41.1225C101.646 41.0278 101.678 40.944 101.738 40.8764C101.801 40.8089 101.887 40.7737 102.004 40.7737H107.224C107.33 40.7737 107.414 40.8089 107.482 40.8764C107.55 40.9467 107.583 41.0278 107.583 41.1225C107.583 41.2279 107.547 41.3117 107.482 41.3739C107.414 41.4334 107.333 41.4658 107.224 41.4658H105.047V41.9092ZM102.555 40.3573C102.439 40.3573 102.352 40.3249 102.289 40.2654C102.229 40.2032 102.197 40.1194 102.197 40.014C102.197 39.9193 102.229 39.8355 102.289 39.7679C102.352 39.6977 102.439 39.6652 102.555 39.6652H103.152L103.106 39.1785C103.093 39.0758 103.106 38.9785 103.152 38.892C103.199 38.8054 103.307 38.7514 103.475 38.727C103.63 38.7108 103.744 38.7379 103.82 38.8136C103.899 38.8893 103.942 38.9812 103.956 39.0893L104.01 39.6625H105.24L105.308 39.0893C105.321 38.9785 105.365 38.8866 105.438 38.8136C105.514 38.7379 105.628 38.7108 105.788 38.727C105.959 38.7514 106.065 38.8054 106.109 38.892C106.152 38.9785 106.166 39.0758 106.152 39.1785L106.092 39.6652H106.703C106.806 39.6652 106.893 39.7004 106.961 39.7679C107.029 39.8355 107.059 39.9166 107.059 40.014C107.059 40.1194 107.026 40.2032 106.961 40.2654C106.893 40.3249 106.806 40.3573 106.703 40.3573H102.555ZM102.591 38.5621C102.474 38.5621 102.387 38.5324 102.325 38.4702C102.265 38.4107 102.232 38.3269 102.232 38.2215C102.232 38.1268 102.265 38.043 102.325 37.9754C102.387 37.9078 102.474 37.8727 102.591 37.8727H106.67C106.774 37.8727 106.86 37.9078 106.928 37.9754C106.996 38.0457 107.026 38.1268 107.026 38.2215C107.026 38.3269 106.994 38.4107 106.928 38.4702C106.86 38.5324 106.774 38.5621 106.67 38.5621H102.591ZM103.291 43.0853C103.291 43.1827 103.307 43.2503 103.345 43.2908C103.38 43.3314 103.443 43.353 103.535 43.353H105.72C105.81 43.353 105.875 43.3314 105.91 43.2908C105.948 43.2503 105.965 43.18 105.965 43.0853V42.8663C105.965 42.769 105.948 42.7014 105.91 42.6609C105.872 42.6203 105.81 42.5987 105.72 42.5987H103.535C103.443 42.5987 103.378 42.6203 103.345 42.6609C103.307 42.7014 103.291 42.7717 103.291 42.8663V43.0853Z" fill="white"/>
<path id="Vector_6" d="M115.352 41.6821C115.965 41.7199 116.432 41.8416 116.747 42.0444C117.062 42.2498 117.222 42.531 117.222 42.8852C117.222 43.2853 117.024 43.5909 116.638 43.7963C116.247 44.0018 115.68 44.1046 114.934 44.1046C114.187 44.1046 113.62 44.0018 113.232 43.7963C112.841 43.5909 112.648 43.2881 112.648 42.8852C112.648 42.5283 112.805 42.2498 113.12 42.0471C113.432 41.8443 113.894 41.7226 114.505 41.6821V41.2738H112.314C112.197 41.2738 112.11 41.2414 112.048 41.1819C111.988 41.1197 111.956 41.0359 111.956 40.9305C111.956 40.8358 111.988 40.752 112.048 40.6844C112.11 40.6141 112.197 40.5817 112.314 40.5817H117.534C117.64 40.5817 117.724 40.6168 117.792 40.6844C117.86 40.752 117.892 40.8331 117.892 40.9305C117.892 41.0359 117.857 41.1197 117.792 41.1819C117.724 41.2414 117.643 41.2738 117.534 41.2738H115.357V41.6821H115.352ZM115.441 38.5512C115.561 38.8108 115.77 39.0244 116.063 39.1947C116.359 39.3623 116.701 39.4948 117.089 39.5922C117.119 39.603 117.151 39.6165 117.192 39.6381C117.233 39.6597 117.271 39.6868 117.303 39.7192C117.336 39.7517 117.358 39.7949 117.377 39.8409C117.39 39.8896 117.39 39.9463 117.374 40.0166C117.349 40.0896 117.314 40.1437 117.263 40.1816C117.211 40.2194 117.159 40.2437 117.102 40.2573C117.048 40.2708 116.997 40.2735 116.94 40.2708C116.888 40.2654 116.847 40.26 116.82 40.2518C116.418 40.1599 116.046 40.0166 115.715 39.822C115.379 39.6246 115.115 39.3975 114.925 39.1379C114.733 39.4002 114.472 39.6246 114.138 39.8193C113.807 40.0139 113.432 40.1572 113.014 40.2545C112.99 40.2627 112.957 40.2708 112.903 40.2789C112.854 40.287 112.803 40.2843 112.746 40.2735C112.689 40.2627 112.64 40.2356 112.585 40.1978C112.537 40.1599 112.499 40.0977 112.474 40.0112C112.458 39.949 112.455 39.8923 112.471 39.8436C112.485 39.7949 112.512 39.7544 112.545 39.7192C112.577 39.6868 112.613 39.6597 112.651 39.6408C112.689 39.6219 112.724 39.6084 112.748 39.6003C112.941 39.5543 113.126 39.5002 113.299 39.4353C113.473 39.3732 113.633 39.2975 113.777 39.2109C113.921 39.1244 114.046 39.0271 114.154 38.9189C114.263 38.8108 114.344 38.6918 114.401 38.5594H112.984C112.873 38.5594 112.786 38.5269 112.727 38.4674C112.664 38.4052 112.634 38.3241 112.634 38.2241C112.634 38.1322 112.664 38.0538 112.727 37.9835C112.786 37.9159 112.873 37.8807 112.984 37.8807H116.858C116.961 37.8807 117.048 37.9159 117.113 37.9835C117.176 38.0538 117.208 38.1322 117.208 38.2241C117.208 38.3241 117.176 38.4052 117.113 38.4674C117.051 38.5269 116.964 38.5594 116.858 38.5594H115.436L115.441 38.5512ZM116.378 42.8879C116.378 42.6878 116.25 42.5472 115.995 42.4688C115.74 42.3931 115.387 42.3526 114.934 42.3526C114.48 42.3526 114.125 42.3904 113.875 42.4688C113.62 42.5472 113.492 42.6878 113.492 42.8879C113.492 43.088 113.62 43.2259 113.875 43.3043C114.127 43.3827 114.483 43.4205 114.934 43.4205C115.384 43.4205 115.742 43.3827 115.995 43.3043C116.247 43.2259 116.378 43.088 116.378 42.8879Z" fill="white"/>
<path id="Vector_7" d="M119.73 43.2178C119.613 43.2178 119.526 43.1853 119.464 43.1258C119.404 43.0637 119.372 42.9798 119.372 42.8744C119.372 42.7798 119.404 42.696 119.464 42.6284C119.526 42.5608 119.613 42.5256 119.73 42.5256H121.503V40.7682C121.503 40.6358 121.543 40.533 121.628 40.46C121.709 40.387 121.809 40.3492 121.929 40.3492C122.048 40.3492 122.143 40.3843 122.227 40.46C122.314 40.533 122.355 40.6358 122.355 40.7682V42.5256H124.953C125.059 42.5256 125.143 42.5608 125.211 42.6284C125.279 42.6987 125.311 42.7798 125.311 42.8744C125.311 42.9798 125.276 43.0637 125.211 43.1258C125.143 43.1853 125.061 43.2178 124.953 43.2178H119.733H119.73ZM124.505 38.9811C124.5 39.1352 124.489 39.3137 124.47 39.511C124.453 39.7084 124.432 39.9139 124.41 40.1275C124.386 40.3384 124.358 40.5493 124.326 40.7601C124.293 40.9683 124.263 41.163 124.231 41.3414C124.223 41.3739 124.212 41.4144 124.193 41.4658C124.179 41.5145 124.149 41.5604 124.111 41.6037C124.071 41.6442 124.022 41.6767 123.957 41.6983C123.897 41.7226 123.815 41.7226 123.712 41.7064C123.617 41.6875 123.544 41.655 123.501 41.6091C123.454 41.5631 123.422 41.5145 123.408 41.4631C123.392 41.4117 123.384 41.3603 123.392 41.3063C123.395 41.2549 123.403 41.2089 123.411 41.1738C123.438 41.0278 123.463 40.8683 123.49 40.698C123.517 40.5276 123.539 40.3546 123.56 40.1761C123.579 40.0004 123.598 39.8301 123.612 39.6625C123.623 39.4975 123.636 39.3461 123.644 39.2136C123.655 39.0676 123.631 38.9784 123.574 38.9433C123.517 38.9081 123.441 38.8919 123.349 38.8919H120.436C120.333 38.8919 120.249 38.8595 120.181 38.7973C120.118 38.7324 120.086 38.6513 120.086 38.5513C120.086 38.4593 120.118 38.3809 120.181 38.3106C120.249 38.2403 120.33 38.2079 120.436 38.2079H123.666C123.989 38.2079 124.214 38.2701 124.334 38.3971C124.456 38.5242 124.51 38.7189 124.502 38.9784L124.505 38.9811Z" fill="white"/>
<path id="Vector_8" d="M129.117 38.8379C129.117 39.0244 129.147 39.2001 129.209 39.3624C129.269 39.5246 129.353 39.6733 129.462 39.8031C129.568 39.9355 129.692 40.0518 129.834 40.1518C129.975 40.2519 130.124 40.3384 130.279 40.406C130.306 40.4195 130.336 40.4384 130.376 40.4628C130.414 40.4898 130.45 40.5195 130.474 40.5601C130.504 40.5979 130.52 40.6439 130.528 40.698C130.537 40.7493 130.528 40.8088 130.501 40.8737C130.463 40.9548 130.417 41.0143 130.363 41.0494C130.309 41.0819 130.252 41.1035 130.197 41.1062C130.143 41.1089 130.094 41.1062 130.043 41.0927C129.994 41.0792 129.958 41.0657 129.937 41.0576C129.717 40.9656 129.502 40.8359 129.291 40.6628C129.079 40.4898 128.889 40.2816 128.715 40.0302C128.552 40.2897 128.362 40.5195 128.14 40.7142C127.914 40.9116 127.665 41.0765 127.39 41.2144C127.361 41.2279 127.323 41.2441 127.276 41.263C127.228 41.282 127.176 41.2901 127.116 41.2901C127.057 41.2901 127.002 41.2766 126.945 41.2495C126.888 41.2225 126.839 41.1684 126.799 41.0846C126.766 41.0143 126.753 40.9575 126.758 40.9089C126.761 40.8602 126.774 40.8169 126.801 40.7818C126.829 40.7466 126.856 40.7142 126.891 40.6926C126.926 40.6709 126.953 40.652 126.975 40.6385C127.371 40.4411 127.684 40.2005 127.914 39.9139C128.145 39.6273 128.262 39.2786 128.262 38.8676V38.8054H127.274C127.157 38.8054 127.07 38.773 127.008 38.7108C126.948 38.6486 126.915 38.5621 126.915 38.4566C126.915 38.362 126.948 38.2782 127.008 38.2106C127.07 38.1403 127.157 38.1079 127.274 38.1079H130.097C130.2 38.1079 130.287 38.143 130.355 38.2106C130.423 38.2782 130.452 38.3593 130.452 38.4566C130.452 38.5621 130.42 38.6459 130.355 38.7108C130.29 38.7757 130.2 38.8054 130.097 38.8054H129.114V38.8406L129.117 38.8379ZM127.45 42.8203C127.45 42.4202 127.643 42.1039 128.034 41.8768C128.422 41.6497 128.992 41.5361 129.736 41.5361C130.48 41.5361 131.05 41.6497 131.441 41.8768C131.829 42.1066 132.024 42.4202 132.024 42.8203C132.024 43.2205 131.826 43.5368 131.441 43.7639C131.05 43.991 130.482 44.1073 129.736 44.1073C128.989 44.1073 128.422 43.991 128.034 43.7639C127.643 43.5368 127.45 43.2205 127.45 42.8203ZM131.183 42.8203C131.183 42.6149 131.055 42.4635 130.803 42.3661C130.55 42.2688 130.197 42.2201 129.739 42.2201C129.28 42.2201 128.927 42.2688 128.677 42.3661C128.427 42.4635 128.297 42.6149 128.297 42.8203C128.297 43.0258 128.425 43.1772 128.677 43.2773C128.93 43.3746 129.283 43.4233 129.739 43.4233C130.195 43.4233 130.553 43.3746 130.803 43.2773C131.055 43.1799 131.183 43.0285 131.183 42.8203ZM131.937 41.0008C131.937 41.1333 131.894 41.236 131.81 41.309C131.726 41.382 131.625 41.4199 131.511 41.4199C131.392 41.4199 131.291 41.3847 131.21 41.309C131.131 41.236 131.09 41.1333 131.09 41.0008V38.1187C131.09 37.9862 131.131 37.8835 131.21 37.8078C131.291 37.7321 131.392 37.6942 131.511 37.6942C131.631 37.6942 131.726 37.7321 131.81 37.8078C131.894 37.8835 131.937 37.9862 131.937 38.1187V39.165H132.562C132.665 39.165 132.749 39.2001 132.817 39.2704C132.879 39.3407 132.912 39.4218 132.912 39.5138C132.912 39.6138 132.879 39.6976 132.817 39.7598C132.749 39.822 132.668 39.8544 132.562 39.8544H131.937V40.9981V41.0008Z" fill="white"/>
<path id="Vector_9" d="M135.347 41.5334C135.347 41.6523 135.371 41.7416 135.42 41.801C135.469 41.8605 135.561 41.8849 135.697 41.8767C136.012 41.8632 136.332 41.8389 136.65 41.7983C136.967 41.7605 137.299 41.701 137.643 41.6226C137.676 41.6172 137.714 41.6118 137.763 41.6064C137.812 41.601 137.858 41.601 137.907 41.6091C137.956 41.6199 137.999 41.6415 138.042 41.6794C138.086 41.7145 138.118 41.774 138.135 41.8578C138.154 41.9389 138.151 42.0065 138.127 42.0606C138.099 42.1147 138.07 42.1579 138.026 42.1904C137.985 42.2255 137.942 42.2499 137.893 42.2634C137.847 42.2769 137.809 42.2877 137.779 42.2904C137.347 42.3904 136.929 42.4607 136.522 42.5013C136.115 42.5419 135.702 42.5689 135.293 42.577C135.018 42.577 134.815 42.5013 134.687 42.3445C134.56 42.1904 134.497 41.993 134.497 41.7551V38.9027C134.497 38.7108 134.546 38.5621 134.644 38.4566C134.742 38.3539 134.902 38.2998 135.122 38.2998H137.388C137.491 38.2998 137.575 38.3377 137.643 38.4107C137.706 38.4837 137.738 38.5675 137.738 38.6567C137.738 38.7567 137.706 38.8405 137.643 38.9027C137.575 38.9649 137.494 38.9974 137.388 38.9974H135.594C135.504 38.9974 135.439 39.019 135.404 39.0595C135.366 39.1001 135.35 39.1704 135.35 39.265V39.9761H137.247C137.35 39.9761 137.437 40.0112 137.502 40.0815C137.565 40.1518 137.597 40.2329 137.597 40.3249C137.597 40.4249 137.565 40.5087 137.502 40.5736C137.44 40.6385 137.353 40.6736 137.247 40.6736H135.35V41.5361L135.347 41.5334ZM139.701 43.6206C139.701 43.7531 139.66 43.8558 139.576 43.9288C139.489 44.0018 139.392 44.0397 139.275 44.0397C139.158 44.0397 139.058 44.0045 138.976 43.9288C138.895 43.8558 138.857 43.7531 138.857 43.6206V40.679H138.238C138.135 40.679 138.048 40.6466 137.983 40.579C137.918 40.5114 137.888 40.4303 137.888 40.3303C137.888 40.2383 137.92 40.1572 137.983 40.0869C138.045 40.0166 138.132 39.9815 138.238 39.9815H138.857V38.1214C138.857 37.9889 138.895 37.8862 138.976 37.8105C139.058 37.7348 139.155 37.6969 139.275 37.6969C139.394 37.6969 139.489 37.7348 139.576 37.8105C139.66 37.8862 139.701 37.9889 139.701 38.1214V43.6233V43.6206Z" fill="white"/>
</g>
<g id="Group_3">
<g id="Group_4">
<path id="Vector_10" d="M59.5814 17.1411C59.88 16.0893 60.0972 15.7379 60.1515 15.6297C60.2329 15.5486 60.3143 15.4675 60.5858 15.4675H62.8633C63.1076 15.4675 63.2162 15.5486 63.2705 15.6297C63.379 15.7649 63.5691 16.1164 63.8405 17.1411L65.7923 24.2409H69.6958L67.4726 16.2245C67.3097 15.6297 67.1197 15.0647 66.9297 14.578C66.7125 14.0373 66.441 13.5533 66.0881 13.1207C65.7353 12.6881 65.3009 12.3367 64.7879 12.096C64.245 11.8527 63.6233 11.7175 62.9176 11.7175H60.5315C59.7986 11.7175 59.1769 11.8527 58.6612 12.096C58.1454 12.3394 57.7138 12.6908 57.3338 13.1207C57.008 13.5533 56.7366 14.0373 56.5194 14.578C56.3294 15.0647 56.1394 15.6297 55.9765 16.2516L53.7533 24.2409H57.6568L59.5814 17.1411Z" fill="#044ABA"/>
<path id="Vector_11" d="M75.6134 30.0645V33.7631H60.3007C59.2991 33.7631 58.4847 33.655 57.8875 33.4928C57.1817 33.2765 56.6415 32.952 56.2887 32.4951C55.9358 32.0625 55.6915 31.5245 55.5829 30.8486C55.5014 30.2808 55.4471 29.6076 55.4471 28.7965V25.4764H59.2964V28.6613C59.2964 29.0669 59.3235 29.3643 59.3506 29.5779C59.3778 29.7942 59.4321 29.9023 59.4592 29.9294C59.4592 29.9564 59.4864 29.9834 59.5678 30.0105C59.6764 30.0375 59.8936 30.0645 60.2464 30.0645H75.6134Z" fill="#044ABA"/>
<path id="Vector_12" d="M78.4854 16.0542V19.8069H75.342V26.6093H71.4656V11.1687H75.342V16.0542H78.4854Z" fill="#044ABA"/>
</g>
<g id="Group_5">
<path id="Vector_13" d="M105.748 11.6147V27.0283C105.748 28.1882 105.802 28.9993 105.938 29.567C106.046 30.324 106.345 30.9702 106.831 31.4298C107.319 31.8895 107.968 32.1869 108.674 32.3193C109.298 32.4545 110.164 32.5356 111.383 32.5356H114.798C116.017 32.5356 116.885 32.4545 117.48 32.3193C118.24 32.1842 118.861 31.8597 119.323 31.4298C119.812 30.9432 120.137 30.3511 120.243 29.6211C120.379 28.9722 120.46 28.1909 120.46 27.031V11.6174H105.745L105.748 11.6147ZM116.617 27.0283C116.617 27.4879 116.617 27.8664 116.562 28.107C116.508 28.2963 116.454 28.4044 116.345 28.5396C116.318 28.5937 116.182 28.6748 116.074 28.7289H115.911C115.639 28.7559 115.259 28.81 114.828 28.81H111.358C110.843 28.81 110.438 28.7559 110.194 28.7289C110.031 28.6748 109.895 28.6207 109.814 28.5126C109.732 28.4585 109.678 28.3233 109.624 28.1611C109.624 27.8637 109.597 27.4852 109.597 27.0283V15.3674H116.617V27.0283Z" fill="white"/>
<path id="Vector_14" d="M126.682 11.1091H122.833V32.568H126.682V22.9863H129.853V19.2336H126.682V11.1091Z" fill="white"/>
</g>
<g id="Group_6">
<path id="Vector_15" d="M139.943 23.8759H143.792V19.45H145.279V24.1462H148.914V11.3525H145.279V15.6973H143.71C143.683 15.1025 143.575 14.5645 143.466 14.1589C143.249 13.483 142.923 12.972 142.464 12.5935C142.003 12.215 141.408 11.9446 140.675 11.8095C139.997 11.7013 139.131 11.6202 138.127 11.6202H131.487V15.3188H138.154C138.642 15.3188 139.047 15.3458 139.318 15.3999C139.481 15.454 139.617 15.5081 139.698 15.5892C139.753 15.6703 139.834 15.8325 139.861 16.0218C139.915 16.3192 139.943 16.6706 139.943 17.0735H131.487V20.745H139.943V23.8759Z" fill="white"/>
<path id="Vector_16" d="M152.296 29.2993C151.813 28.5207 151.373 27.8745 150.991 27.3716C150.573 26.8255 150.122 26.3929 149.655 26.0793C149.177 25.7602 148.624 25.5358 148.013 25.4088C147.443 25.2898 146.756 25.233 145.912 25.233H141.468C140.621 25.233 139.934 25.2898 139.37 25.4088C138.759 25.5358 138.208 25.7602 137.727 26.0793C137.252 26.3956 136.807 26.8282 136.395 27.3716C136.012 27.8745 135.572 28.5234 135.089 29.2993L132.377 33.6711H136.729L138.642 30.5565C138.9 30.1402 139.12 29.8157 139.302 29.5751C139.44 29.3913 139.587 29.2534 139.731 29.1641C139.886 29.0722 140.078 29.01 140.301 28.9803C140.58 28.9397 140.966 28.9208 141.446 28.9208H145.944C146.425 28.9208 146.81 28.9397 147.09 28.9776C147.313 29.01 147.503 29.0722 147.652 29.1587C147.807 29.2534 147.953 29.3913 148.092 29.5724C148.271 29.813 148.491 30.1402 148.748 30.5511L150.662 33.6684H155.008L152.305 29.2993H152.296Z" fill="white"/>
<path id="Vector_17" d="M153.504 11.0822H149.905V25.4953H153.504V11.0822Z" fill="white"/>
</g>
<g id="Group_7">
<path id="Vector_18" d="M95.0522 15.0106C94.9029 14.3022 94.5772 13.6831 94.1049 13.1802C93.6298 12.6773 93.0082 12.2934 92.1776 12.0582C91.4365 11.8527 90.4864 11.704 89.33 11.704H86.1866C85.0003 11.704 84.0529 11.8527 83.3119 12.0582C82.4812 12.2934 81.8596 12.6773 81.3846 13.1802C80.9095 13.6831 80.5838 14.3022 80.4345 15.0106C80.2553 15.7189 80.1983 16.4867 80.1983 17.2843C80.1983 18.1414 80.258 18.8795 80.4345 19.5878C80.5838 20.3259 80.9095 20.9451 81.3846 21.3885C81.7999 21.9211 82.4215 22.2753 83.3119 22.57C84.0231 22.7755 84.9433 22.8944 86.0997 22.8944H89.33C90.4864 22.8944 91.4338 22.7755 92.1776 22.57C93.0679 22.2753 93.6895 21.9211 94.1049 21.3885C94.5799 20.9451 94.9057 20.3259 95.0522 19.5878C95.2314 18.8795 95.3183 18.1414 95.3183 17.2843C95.3183 16.4867 95.2287 15.7189 95.0522 15.0106ZM91.4636 18.3766C91.4636 18.82 91.1379 19.1444 90.6927 19.1444H84.794C84.3488 19.1444 84.0231 18.82 84.0231 18.3766V16.192C84.0231 15.7784 84.3488 15.4242 84.794 15.4242H90.6927C91.1379 15.4242 91.4636 15.7784 91.4636 16.192V18.3766Z" fill="#044ABA"/>
<path id="Vector_19" d="M98.4237 23.9894V25.8792H85.3885V23.9894H81.5936V28.7938C81.5936 29.4697 81.5936 30.224 81.7293 30.8459C81.8107 31.4947 82.0279 32.0598 82.4079 32.4924C82.788 32.952 83.3553 33.2764 83.9796 33.463C84.604 33.6522 85.3613 33.7334 86.42 33.7334H97.4247C98.4264 33.7334 99.2136 33.6522 99.8651 33.463C100.544 33.2467 101.084 32.9223 101.437 32.4924C101.763 32.1139 101.98 31.6029 102.115 30.8459C102.224 30.3051 102.278 29.686 102.278 28.7938V23.9894H98.4291H98.4237ZM98.4237 29.4967C98.4237 29.9834 98.0437 30.3592 97.5822 30.3592H86.2273C85.7658 30.3592 85.3858 29.9807 85.3858 29.4967V28.7127H98.421V29.4967H98.4237Z" fill="#044ABA"/>
<path id="Vector_20" d="M102.284 11.1768V22.5402H98.4346V19.0038H96.1598V15.2512H98.4346V11.1768H102.284Z" fill="#044ABA"/>
</g>
</g>
</g>
<g id="Group_8">
<path id="Vector_21" d="M49.6136 9.68432L44.4641 31.5488C44.2306 32.4815 43.4109 33.1331 42.4526 33.1331H15.0005C13.9717 33.1331 13.1058 32.3869 12.9646 31.3622L9.54702 7.58628C9.54702 6.25879 8.44764 5.1611 7.11208 5.1611C5.77653 5.1611 4.67715 6.25608 4.67715 7.58628V10.2656H0V7.95939C0 4.04179 3.2303 0.5 7.13652 0.5C10.6464 0.524333 13.1736 2.99277 13.9934 6.13983C14.1102 6.55889 14.1807 6.97796 14.2269 7.42136C14.3436 8.47038 14.4848 9.49506 14.6259 10.5225L14.6721 10.7793L16.7541 24.9032L16.8003 25.3006C16.8247 25.4412 16.8464 25.6278 16.8708 25.8143C16.9876 26.8633 17.1993 28.472 17.2699 28.472H40.3679L44.1818 12.342H18.9312L18.3231 7.68091H48.0201C49.0734 7.68091 49.8443 8.65963 49.6109 9.68432H49.6136Z" fill="#044ABA"/>
<path id="Vector_22" d="M38.7907 40.5979C38.7907 39.895 39.3825 39.3326 40.0611 39.3326H45.8729C45.2812 36.6641 42.8815 34.6688 40.0611 34.6688C37.6072 34.6688 35.5197 36.1585 34.6429 38.2647C34.6429 38.2647 34.6429 38.2647 34.6429 38.2674H22.2592C22.2592 38.2674 22.2592 38.2674 22.2592 38.2647C21.3281 36.1558 19.2406 34.6688 16.7867 34.6688C13.9364 34.6688 11.5666 36.6641 10.9749 39.3326H16.7867C17.4626 39.3326 18.0272 39.895 18.0272 40.5979C18.0272 41.3009 17.4626 41.8633 16.7867 41.8633H10.9749C11.5666 44.5047 13.9364 46.5 16.7867 46.5C19.2406 46.5 21.3281 45.0373 22.2592 42.9312V42.9258H34.6402V42.9312C35.5143 45.04 37.6017 46.5 40.0584 46.5C42.8788 46.5 45.2784 44.5047 45.8702 41.8633H40.0584C39.3825 41.8633 38.788 41.3009 38.788 40.5979H38.7907Z" fill="#044ABA"/>
<path id="Vector_23" d="M28.9289 24.8789C24.3874 24.8789 20.6957 21.1992 20.6957 16.6787H23.736C23.736 19.5311 26.0677 21.8535 28.9316 21.8535C31.7954 21.8535 34.1272 19.5338 34.1272 16.6787H37.1675C37.1675 21.2019 33.473 24.8789 28.9343 24.8789H28.9289Z" fill="#044ABA"/>
</g>
</g>
<defs>
<clipPath id="clip0_117_927">
<rect width="155" height="46" fill="white" transform="translate(0 0.5)"/>
</clipPath>
</defs>
</svg>
