<svg xmlns="http://www.w3.org/2000/svg" width="113" height="114" viewBox="0 0 113 114" fill="none">
    <rect x="0.646484" y="0.823242" width="112.354" height="112.354" rx="20" fill="white"/>
    <path d="M91.4596 36.9638L83.856 68.672C83.5113 70.0247 82.3008 70.9696 80.8859 70.9696H40.3506C38.8314 70.9696 37.5528 69.8874 37.3444 68.4014L32.298 33.9212C32.298 31.996 30.6747 30.4041 28.7026 30.4041C26.7306 30.4041 25.1072 31.9921 25.1072 33.9212V37.8068H18.201V34.4622C18.201 28.7809 22.9709 23.6445 28.7387 23.6445C33.9214 23.6798 37.653 27.2596 38.8635 31.8235C39.0359 32.4312 39.1401 33.039 39.2082 33.682C39.3806 35.2033 39.589 36.6893 39.7974 38.1792L39.8656 38.5517L42.9399 59.0344L43.008 59.6108C43.0441 59.8147 43.0762 60.0852 43.1122 60.3558C43.2846 61.8771 43.5972 64.21 43.7015 64.21H77.8076L83.4391 40.818H46.1545L45.2567 34.0584H89.1068C90.662 34.0584 91.8003 35.4778 91.4556 36.9638H91.4596Z" fill="#044ABA"/>
    <path d="M75.4766 81.7958C75.4766 80.7763 76.3504 79.9608 77.3524 79.9608H85.9341C85.0603 76.0909 81.517 73.1973 77.3524 73.1973C73.729 73.1973 70.6467 75.3577 69.352 78.412C69.352 78.412 69.352 78.412 69.352 78.416H51.0664C51.0664 78.416 51.0664 78.416 51.0664 78.412C49.6916 75.3537 46.6093 73.1973 42.9858 73.1973C38.7772 73.1973 35.278 76.0909 34.4042 79.9608H42.9858C43.9839 79.9608 44.8176 80.7763 44.8176 81.7958C44.8176 82.8152 43.9839 83.6307 42.9858 83.6307H34.4042C35.278 87.4614 38.7772 90.355 42.9858 90.355C46.6093 90.355 49.6916 88.2339 51.0664 85.1795V85.1716H69.348V85.1795C70.6386 88.2378 73.721 90.355 77.3484 90.355C81.513 90.355 85.0563 87.4614 85.9301 83.6307H77.3484C76.3504 83.6307 75.4726 82.8152 75.4726 81.7958H75.4766Z" fill="#044ABA"/>
    <path d="M60.9168 58.9995C54.2111 58.9995 48.7598 53.6631 48.7598 47.1074H53.2491C53.2491 51.244 56.6922 54.612 60.9208 54.612C65.1495 54.612 68.5926 51.2479 68.5926 47.1074H73.0818C73.0818 53.6671 67.6266 58.9995 60.9248 58.9995H60.9168Z" fill="#044ABA"/>
    </svg>